<svg id="Layer_1" data-name="Layer 1" xmlns="http://www.w3.org/2000/svg" xmlns:xlink="http://www.w3.org/1999/xlink" viewBox="0 0 30 30"><defs><linearGradient id="linear-gradient" x1="2.61" y1="31.71" x2="16.61" y2="11.95" gradientUnits="userSpaceOnUse"><stop offset="0" stop-color="blue"/><stop offset="0.01" stop-color="#0002ff"/><stop offset="0.48" stop-color="#024cff"/><stop offset="0.81" stop-color="#037aff"/><stop offset="0.97" stop-color="#038cff"/></linearGradient><linearGradient id="linear-gradient-2" x1="2.96" y1="39.08" x2="21.16" y2="0.5" gradientUnits="userSpaceOnUse"><stop offset="0" stop-color="#0000bd"/><stop offset="0.6" stop-color="#0387fd"/><stop offset="0.66" stop-color="#0391fd"/><stop offset="0.97" stop-color="#03f0ff"/></linearGradient><linearGradient id="linear-gradient-3" x1="9.41" y1="25.41" x2="24.46" y2="-6.48" xlink:href="#linear-gradient-2"/><linearGradient id="linear-gradient-4" x1="-422.2" y1="-38.32" x2="-422.1" y2="-33.99" gradientTransform="translate(46.4 -405.5) rotate(-90)" gradientUnits="userSpaceOnUse"><stop offset="0" stop-color="#0000bd"/><stop offset="0.09" stop-color="#0387fd"/><stop offset="0.48" stop-color="#fff"/><stop offset="0.64" stop-color="#03f0ff"/></linearGradient><linearGradient id="linear-gradient-5" x1="-473.85" y1="-53.65" x2="-473.77" y2="-48.95" gradientTransform="translate(483.2 68.7)" xlink:href="#linear-gradient-4"/><linearGradient id="linear-gradient-6" x1="-50.87" y1="-31.48" x2="-50.79" y2="-26.89" gradientTransform="translate(59.6 47.8)" xlink:href="#linear-gradient-4"/><linearGradient id="linear-gradient-7" x1="14.1" y1="-2.19" x2="13.31" y2="21.89" gradientUnits="userSpaceOnUse"><stop offset="0" stop-color="#0000bd"/><stop offset="0.6" stop-color="#0387fd"/><stop offset="0.66" stop-color="#fff"/><stop offset="0.97" stop-color="#03f0ff"/></linearGradient><linearGradient id="linear-gradient-8" x1="17.46" y1="-2.09" x2="16.67" y2="21.98" xlink:href="#linear-gradient-7"/><linearGradient id="linear-gradient-9" x1="23.32" y1="15.03" x2="8.3" y2="15.34" gradientUnits="userSpaceOnUse"><stop offset="0" stop-color="#0000bd"/><stop offset="0.13" stop-color="#0387fd"/><stop offset="0.13" stop-color="#098afd"/><stop offset="0.14" stop-color="#37a0fd"/><stop offset="0.15" stop-color="#62b4fe"/><stop offset="0.16" stop-color="#88c6fe"/><stop offset="0.18" stop-color="#a8d6fe"/><stop offset="0.19" stop-color="#c4e3ff"/><stop offset="0.21" stop-color="#daedff"/><stop offset="0.23" stop-color="#ebf5ff"/><stop offset="0.25" stop-color="#f6fbff"/><stop offset="0.29" stop-color="#fdfeff"/><stop offset="0.38" stop-color="#fff"/><stop offset="0.97" stop-color="#03f0ff"/></linearGradient><linearGradient id="linear-gradient-10" x1="22.59" y1="12.62" x2="9.63" y2="13.76" gradientUnits="userSpaceOnUse"><stop offset="0" stop-color="#0000bd"/><stop offset="0.21" stop-color="#0387fd"/><stop offset="0.4" stop-color="#fff"/><stop offset="0.64" stop-color="#03f0ff"/></linearGradient><linearGradient id="linear-gradient-11" x1="15.74" y1="4.31" x2="15.42" y2="14.02" xlink:href="#linear-gradient-7"/><linearGradient id="linear-gradient-12" x1="24.15" y1="17.68" x2="10.57" y2="17.87" gradientUnits="userSpaceOnUse"><stop offset="0" stop-color="#0000bd"/><stop offset="0.1" stop-color="#0387fd"/><stop offset="0.56" stop-color="#fff"/><stop offset="0.99" stop-color="#03f0ff"/></linearGradient><linearGradient id="linear-gradient-13" x1="17.05" y1="14.07" x2="16.46" y2="18.82" xlink:href="#linear-gradient-7"/><linearGradient id="linear-gradient-14" x1="13.45" y1="14.12" x2="12.86" y2="18.87" xlink:href="#linear-gradient-7"/><linearGradient id="linear-gradient-15" x1="15.2" y1="14.12" x2="14.61" y2="18.87" xlink:href="#linear-gradient-7"/></defs><title>tractor icon</title><path d="M25.4,12.7h-.3a12.2,12.2,0,0,0-1.4-3.3l.2-.3a.7.7,0,0,0,0-1.2L21.5,5.4a.9.9,0,0,0-1.2,0l-.2.2a11.3,11.3,0,0,0-3.3-1.3V3.9a.9.9,0,0,0-.9-.8H12.5a.9.9,0,0,0-.9.8v.4A13,13,0,0,0,8.4,5.7l-.3-.2a.7.7,0,0,0-1.2,0L4.5,7.9a1.1,1.1,0,0,0,0,1.3l.2.2a12,12,0,0,0-1.3,3.3H3.1a.9.9,0,0,0-.9.9V17a.9.9,0,0,0,.9.9h.2a12.2,12.2,0,0,0,1.4,3.3l-.2.2a.9.9,0,0,0,0,1.3l2.4,2.4a.8.8,0,0,0,1.2,0l.2-.2a9.7,9.7,0,0,0,3.3,1.4v.3a.9.9,0,0,0,.9.9h3.4a.9.9,0,0,0,.9-.9v-.3a13.6,13.6,0,0,0,3.3-1.4l.2.2a.8.8,0,0,0,1.2,0l2.4-2.4a.9.9,0,0,0,0-1.3l-.2-.2a9.7,9.7,0,0,0,1.4-3.3h.3a.9.9,0,0,0,.9-.9V13.6A.9.9,0,0,0,25.4,12.7ZM14.2,21.4a6.1,6.1,0,0,1-6-6.1,6,6,0,1,1,12,0A6.1,6.1,0,0,1,14.2,21.4Z" style="fill:url(#linear-gradient)"/><ellipse cx="14.1" cy="15.5" rx="9.4" ry="9.5" style="fill:url(#linear-gradient-2)"/><ellipse cx="14.1" cy="15.6" rx="7.8" ry="7.9" style="fill:url(#linear-gradient-3)"/><rect x="9.2" y="16.3" width="2.4" height="0.57" rx="0.2" style="fill:url(#linear-gradient-4)"/><rect x="8.1" y="17.3" width="2.7" height="0.57" rx="0.2" transform="translate(-8.2 27.1) rotate(-90)" style="fill:url(#linear-gradient-5)"/><rect x="7.8" y="18.5" width="1.9" height="0.57" rx="0.2" style="fill:url(#linear-gradient-6)"/><rect x="13.2" y="14.6" width="0.7" height="2.04" rx="0.3" style="fill:url(#linear-gradient-7)"/><rect x="16.5" y="14.7" width="0.7" height="2.04" rx="0.3" style="fill:url(#linear-gradient-8)"/><rect x="11.8" y="14.8" width="6.6" height="0.85" rx="0.3" style="fill:url(#linear-gradient-9)"/><path d="M13.6,11.7l-1.1,3.1h5.1V11.7Zm3.3,2.7H13.3l.7-2.2h2.9Z" style="fill:url(#linear-gradient-10)"/><rect x="12.8" y="11.2" width="5.4" height="0.66" rx="0.3" style="fill:url(#linear-gradient-11)"/><path d="M17.5,16.2H12.1a1.5,1.5,0,0,0-1.5,1.5v.2a1.5,1.5,0,0,0,1.5,1.5h5.4A1.5,1.5,0,0,0,19,17.9v-.2A1.5,1.5,0,0,0,17.5,16.2Zm-.1,2.7H12.1a1.1,1.1,0,0,1-1-1h0a1,1,0,0,1,1-1h5.3a1,1,0,0,1,1,1h0A1.1,1.1,0,0,1,17.4,18.9Z" style="fill:url(#linear-gradient-12)"/><circle cx="16.6" cy="17.8" r="0.5" style="fill:url(#linear-gradient-13)"/><circle cx="13" cy="17.8" r="0.5" style="fill:url(#linear-gradient-14)"/><circle cx="14.7" cy="17.8" r="0.5" style="fill:url(#linear-gradient-15)"/></svg>